<svg fill="none" viewBox="0 0 88 74">
  <path fill="#000" stroke="#000" stroke-width="1.5" d="M46.987 1.652h-.75v35.853h6.996V25.357H57.386v-5.842H53.233V7.714H57.386V1.652h-10.4Z"/>
  <path stroke="#000" stroke-width="1.5" d="m43.591 36.428-5.887-12.136a6.606 6.606 0 0 0 2.109-1.682c1.524-1.853 2.204-4.782 2.204-8.61 0-2.933-.313-5.321-.978-7.125-.64-1.835-1.743-3.205-3.325-4.038-1.543-.812-3.585-1.185-6.066-1.185h-2.034v6.062h2.09c1.422 0 2.224.173 2.582.387.243.147.46.446.46 1.171v8.685c0 .725-.217 1.024-.46 1.17-.358.215-1.16.388-2.583.388h-2.088v5.654l.094.17 6.56 11.78.215.386H44.114l-.523-1.078Z"/>
  <path fill="#000" d="M4.95 53.048v5.725h-2V43.148H9c1.033 0 1.842.159 2.425.475.583.317 1 .859 1.25 1.625.25.75.375 1.775.375 3.075 0 1.7-.283 2.917-.85 3.65-.55.717-1.492 1.075-2.825 1.075H4.95Zm0-1.65h4.125c.717 0 1.208-.075 1.475-.225.267-.15.4-.425.4-.825v-4.5c0-.4-.133-.675-.4-.825-.267-.15-.758-.225-1.475-.225H4.95v6.6Zm5.75.95 3.125 6.425H11.65l-3.025-6.4 2.075-.025Zm8.532-.575v5.35h7.075v1.65h-9.075V43.148h8.95l-.225 1.65h-6.725v5.35h6.1v1.625h-6.1Zm12.842.3v6.7h-2V43.148h8.15l-.2 1.65h-5.95v5.625h5.15v1.65h-5.15Zm9.157 6.7V43.148h2v13.975h5.95v1.65h-7.95Zm12.67-7v5.35h7.074v1.65H51.9V43.148h8.95l-.225 1.65H53.9v5.35H60v1.625h-6.1Zm19.341 7-1.8-3.8c-.233-.5-.467-1.041-.7-1.625a4.806 4.806 0 0 1-.35-1.8h-4.05v-1.6h4.05c0-.616.108-1.216.325-1.8.233-.583.475-1.125.725-1.625l1.675-3.375h2.275l-3.775 7.6 3.9 8.025h-2.275Zm-8.5 0V43.148h2v15.625h-2Zm17.726-13.975v13.975h-2V44.798h-4.25v-1.65h10.5v1.65h-4.25Z"/>
</svg>
