<svg fill="none" viewBox="0 0 215 120">
  <path fill="#656565" d="M72.883.367v119.55h-6.38V.367z"/>
  <path fill="#000" fill-rule="evenodd" d="M6.223 55V42.853h7.788L19.744 55h5.991l-6.223-12.829c1.05-.411 1.897-1.008 2.54-1.792 1.357-1.649 2.035-4.36 2.035-8.135 0-2.895-.312-5.185-.935-6.87-.586-1.686-1.576-2.895-2.968-3.628-1.393-.733-3.298-1.1-5.716-1.1H.726V55h5.497Zm8.3-16.49h-8.3V25.21h8.3c1.429 0 2.418.165 2.968.494.55.33.824.935.824 1.814v8.685c0 .88-.275 1.484-.824 1.814-.55.33-1.54.494-2.968.494Zm23.584 11.928V39.994h13.027v-4.342H38.107V25.21h14.29l.66-4.562H32.61V55h20.612v-4.562H38.107Zm55.77 47.847v-14.29h10.993v-4.343H93.877V68.494h12.587l.605-4.562H88.381v34.353h5.496Zm19.249-34.353v34.353h18.139v-4.562h-12.642V63.932h-5.497Zm29.114 29.791V83.28h13.027v-4.343H142.24V68.494h14.291l.66-4.562h-20.447v34.353h20.612v-4.562H142.24Zm37.577-3.957 4.013 8.52h6.101l-8.52-17.645 8.245-16.71h-6.101l-3.738 7.586a37.009 37.009 0 0 0-1.539 3.408 10.118 10.118 0 0 0-.659 3.573h-7.091V63.932h-5.496v34.353h5.496v-15.5h7.091c0 1.21.238 2.418.714 3.628.477 1.172.971 2.29 1.484 3.353Zm26.039 8.52V68.493h9.07v-4.562h-23.635v4.562h9.069v29.791h5.496Z" clip-rule="evenodd"/>
</svg>
